# xmcd
#
# Track frame offsets:
#	150
#	11544
#	23373
#	33807
#	45530
#	59005
#	70054
#	83570
#	95336
#	106756
#	117486
#	126396
#	140729
#
# Disc length: 2081 seconds
#
# Revision: 0
# Processed by: cddbd v1.5.1PL0 Copyright (c) Steve Scherf et al.
# Submitted via: dBpowerAMP V4.0
#
DISCID=a3081f0d
DTITLE=The Black Keys - The Big Come Up
DYEAR=2002
DGENRE=Blues
TTITLE0=Busted
TTITLE1=Do The Rump
TTITLE2=I'll Be Your Man
TTITLE3=Countdown
TTITLE4=The Breaks
TTITLE5=Run Me Down
TTITLE6=Leavin Trunk
TTITLE7=Heavy Soul
TTITLE8=She Said, She Said
TTITLE9=Them Eyes
TTITLE10=Yearnin
TTITLE11=Brooklyn Bound
TTITLE12=240 Years Before Your Time
EXTD=
EXTT0=
EXTT1=
EXTT2=
EXTT3=
EXTT4=
EXTT5=
EXTT6=
EXTT7=
EXTT8=
EXTT9=
EXTT10=
EXTT11=
EXTT12=
PLAYORDER=
